<?xml version="1.0" standalone="no"?><svg xmlns="http://www.w3.org/2000/svg" viewBox="0 0 1440 320"><path fill="#ffc042" fill-opacity="1" d="M0,128L26.7,138.7C53.3,149,107,171,160,160C213.3,149,267,107,320,117.3C373.3,128,427,192,480,186.7C533.3,181,587,107,640,85.3C693.3,64,747,96,800,122.7C853.3,149,907,171,960,170.7C1013.3,171,1067,149,1120,154.7C1173.3,160,1227,192,1280,224C1333.3,256,1387,288,1413,304L1440,320L1440,0L1413.3,0C1386.7,0,1333,0,1280,0C1226.7,0,1173,0,1120,0C1066.7,0,1013,0,960,0C906.7,0,853,0,800,0C746.7,0,693,0,640,0C586.7,0,533,0,480,0C426.7,0,373,0,320,0C266.7,0,213,0,160,0C106.7,0,53,0,27,0L0,0Z"></path></svg>